# xmcd CD database file
#
# Track frame offsets:
#	150
#	28015
#	43685
#	61050
#	91425
#	115865
#	131835
#	158490
#	183660
#	200512
#
# Disc length: 2873 seconds
#
# Revision: 0
# Processed by: cddbd v1.5.1PL0 Copyright (c) Steve Scherf et al.
# Submitted via: CDex 1.51
#
DISCID=850b370a
DTITLE=HU - Sampler Best of the Best 1014
DYEAR=1995
DGENRE=New Age
TTITLE0=La Conquista del Paraiso - Vangelis
TTITLE1=Bilitis - F Lai
TTITLE2=Desert Rain - David Lanz
TTITLE3=Until the Last Moment - Yanni
TTITLE4=Santa Fe - Raul Di Blassio
TTITLE5=Song of Ocarina - Jan Philippe Audin and Diego Modena
TTITLE6=Nostalgia - Yanni
TTITLE7=Rosalinda - Raul Di Blassio
TTITLE8=Eternal Flame Hoff and Steinberg
TTITLE9=Isla del Sol - Ottmar Liebert
EXTD=YEAR: 1995
EXTT0=
EXTT1=
EXTT2=
EXTT3=
EXTT4=
EXTT5=
EXTT6=
EXTT7=
EXTT8=
EXTT9=
PLAYORDER=
